<?xml version="1.0" standalone="no"?><!DOCTYPE svg PUBLIC "-//W3C//DTD SVG 1.1//EN" "http://www.w3.org/Graphics/SVG/1.1/DTD/svg11.dtd"><svg t="1527649499304" class="icon" style="" viewBox="0 0 1024 1024" version="1.1" xmlns="http://www.w3.org/2000/svg" p-id="2321" xmlns:xlink="http://www.w3.org/1999/xlink" width="20" height="20"><defs><style type="text/css"></style></defs><path d="M641.749716 520.381606a1866.921887 1866.921887 0 0 0 40.201738-11.736292c11.164122-3.330846 22.61433-6.695749 34.336999-10.047029 11.722669-3.344469 21.490425-6.409664 29.310078-9.202397l-11.722669 44.384027c-3.35128 12.294839-6.423287 21.497236-9.209209 27.634438a261.754053 261.754053 0 0 1-19.705799 41.877379c-7.513134 12.839762-14.631199 24.010696-21.347383 33.499179a348.580817 348.580817 0 0 1-24.283158 30.972095l-103.010995 30.999342 84.585766 15.073949a1130.51213 1130.51213 0 0 1-36.005827 29.303267c-11.170934 8.364577-23.874465 17.178717-38.110594 26.381113s-29.146601 17.730452-44.806344 25.543294c-15.625684 7.812842-33.06324 11.8589-52.3331 12.138174-19.263049 0.279273-37.545236-0.980862-54.853372-3.780408a335.039466 335.039466 0 0 1-60.288986-14.222506 2116.639939 2116.639939 0 0 0 20.10087-31.823538 2658.900228 2658.900228 0 0 1 22.198825-35.590323c8.650662-13.691206 17.716829-28.880951 27.218934-45.63054a13110.357832 13110.357832 0 0 0 77.876394-133.172517 31956.002528 31956.002528 0 0 0 67.829366-118.064511 7628.487691 7628.487691 0 0 1 66.160537-115.564673C609.633281 339.501028 582.026089 373.272668 552.981661 410.681673c-25.134601 31.83035-53.041501 69.648048-83.747947 113.480341-30.699633 43.832292-61.957814 91.690208-93.788163 143.614615-6.695749 10.619199-14.236129 22.886791-22.600707 36.843647a7456.918494 7456.918494 0 0 0-26.394737 44.377216 13200.413269 13200.413269 0 0 1-28.472258 48.171247 5957.95627 5957.95627 0 0 1-28.880951 48.144c-22.341868 36.278289-45.228659 74.259464-68.673997 113.889033 0.565358-11.729481 2.792733-26.789807 6.70256-45.215036 3.344469-15.625684 8.923124-35.188442 16.742778-58.626968 7.819654-23.45215 18.997399-51.072965 33.492367-82.903315a2717.138938 2717.138938 0 0 0 21.783321-46.904299 4983.735042 4983.735042 0 0 1 11.729481-25.958798c2.785922-6.688937 5.013297-11.164122 6.695748-13.384686-2.785922-3.35128-3.344469-10.060652-1.682451-20.114492 1.123905-8.936747 4.332143-21.91274 9.631525-38.941603 5.313005-17.01524 14.379172-40.896516 27.218933-71.609773 12.846574-31.25818 29.739206-64.89359 50.677896-100.91304 20.918255-36.005827 44.506635-71.739192 70.758329-107.193284a1228.400843 1228.400843 0 0 1 85.423587-102.997373c30.706445-33.226717 62.100856-62.673026 94.203668-88.345739 32.102812-25.686336 64.226058-46.768068 96.308435-63.238384 32.102812-16.463504 63.217949-25.808944 93.379471-28.056754 0.565358 19.535511-1.396367 45.36489-5.851117 77.474513a2486.895093 2486.895093 0 0 1-16.74959 102.990561 3016.315619 3016.315619 0 0 1-22.627952 111.389196 3430.055676 3430.055676 0 0 1-24.276347 102.58868l-112.233827 61.140428z" fill="" p-id="2322"></path></svg>