<?xml version="1.0" standalone="no"?>
<!DOCTYPE svg PUBLIC "-//W3C//DTD SVG 1.1//EN" "http://www.w3.org/Graphics/SVG/1.1/DTD/svg11.dtd">
<svg t="1528857622277" class="icon" style="" viewBox="0 0 1473 1024" version="1.1" xmlns="http://www.w3.org/2000/svg" p-id="2806" xmlns:xlink="http://www.w3.org/1999/xlink" width="28.76953125" height="20"><defs>
  <style type="text/css">
    *{fill:#1E90FF;}
  </style></defs>
  <path d="M1388.020 57.589c-15.543-15.787-37.146-25.569-61.033-25.569s-45.491 9.782-61.023 25.558l-716.054 723.618-370.578-374.571c-15.551-15.769-37.151-25.537-61.033-25.537s-45.482 9.768-61.024 25.527c-15.661 15.865-25.327 37.661-25.327 61.715 0 24.053 9.667 45.849 25.327 61.715l431.659 436.343c15.523 15.814 37.124 25.615 61.014 25.615s45.491-9.802 61.001-25.602l777.069-785.403c15.624-15.868 25.271-37.66 25.271-61.705s-9.647-45.837-25.282-61.717M1388.020 57.589z" fill="#8a8a8a" p-id="2807"></path>
</svg>
