<?xml version="1.0" standalone="no"?><!DOCTYPE svg PUBLIC "-//W3C//DTD SVG 1.1//EN" "http://www.w3.org/Graphics/SVG/1.1/DTD/svg11.dtd"><svg t="1530083880447" class="icon" style="" viewBox="0 0 1024 1024" version="1.1" xmlns="http://www.w3.org/2000/svg" p-id="4855" xmlns:xlink="http://www.w3.org/1999/xlink" width="20" height="20"><defs><style type="text/css"></style></defs><path d="M426.667 426.667H85.547A85.419 85.419 0 0 0 0 512c0 47.445 38.315 85.333 85.547 85.333h341.12v341.12c0 47.275 38.186 85.547 85.333 85.547 47.445 0 85.333-38.315 85.333-85.547v-341.12h341.12A85.419 85.419 0 0 0 1024 512c0-47.445-38.315-85.333-85.547-85.333h-341.12V85.547A85.419 85.419 0 0 0 512 0c-47.445 0-85.333 38.315-85.333 85.547v341.12z" fill="" p-id="4856"></path></svg>