<?xml version="1.0" standalone="no"?><!DOCTYPE svg PUBLIC "-//W3C//DTD SVG 1.1//EN" "http://www.w3.org/Graphics/SVG/1.1/DTD/svg11.dtd"><svg t="1532143887142" class="icon" style="" viewBox="0 0 1024 1024" version="1.1" xmlns="http://www.w3.org/2000/svg" p-id="5807" xmlns:xlink="http://www.w3.org/1999/xlink" width="16" height="16"><defs><style type="text/css"></style></defs><path d="M912.290909 158.254545v-148.945454H0v875.054545h130.327273v130.327273h893.672727v-856.436364h-111.709091z m-875.054545 688.872728v-800.581818h837.818181v111.70909H130.327273v688.872728H37.236364z m949.527272 130.327272H167.563636v-781.963636h819.2v781.963636z" fill="" p-id="5808"></path><path d="M781.963636 567.854545H595.781818v-186.181818a18.618182 18.618182 0 1 0-37.236363 0v186.181818H372.363636a18.618182 18.618182 0 1 0 0 37.236364h186.181819v186.181818a18.618182 18.618182 0 1 0 37.236363 0v-186.181818h186.181818a18.618182 18.618182 0 1 0 0-37.236364z" fill="" p-id="5809"></path></svg>