<?xml version="1.0" standalone="no"?><!DOCTYPE svg PUBLIC "-//W3C//DTD SVG 1.1//EN" "http://www.w3.org/Graphics/SVG/1.1/DTD/svg11.dtd"><svg t="1532678758904" class="icon" style="" viewBox="0 0 1024 1024" version="1.1" xmlns="http://www.w3.org/2000/svg" p-id="3167" xmlns:xlink="http://www.w3.org/1999/xlink" width="200" height="200"><defs><style type="text/css"></style></defs><path d="M106.496 619.008q44.512 0 75.488-31.488t31.008-75.488-31.008-75.488-75.488-31.488-75.488 31.488T0 512.032t31.008 75.488 75.488 31.488z m405.504 0q44 0 75.488-31.488t31.488-75.488-31.488-75.488T512 405.056t-75.488 31.488-31.488 75.488 31.488 75.488 75.488 31.488z m404.992 0q44 0 75.488-31.488t31.488-75.488-31.488-75.488-75.488-31.488-75.008 31.488-31.008 75.488 31.008 75.488 75.008 31.488z" fill="" p-id="3168"></path></svg>