<?xml version="1.0" standalone="no"?><!DOCTYPE svg PUBLIC "-//W3C//DTD SVG 1.1//EN" "http://www.w3.org/Graphics/SVG/1.1/DTD/svg11.dtd"><svg t="1534820303506" class="icon" style="" viewBox="0 0 1024 1024" version="1.1" xmlns="http://www.w3.org/2000/svg" p-id="11022" xmlns:xlink="http://www.w3.org/1999/xlink" width="200" height="200"><defs><style type="text/css"></style></defs><path d="M632.466 765.964l222.5-222.5c17.38-17.378 17.38-45.552 0-62.932l-222.5-222.5c-17.38-17.374-45.554-17.374-62.932 0-17.38 17.38-17.38 45.556 0 62.934l146.532 146.534H200.5C175.92 467.5 156 487.42 156 512c0 24.574 19.92 44.5 44.5 44.5h515.564l-146.532 146.53a44.376 44.376 0 0 0-13.032 31.468 44.36 44.36 0 0 0 13.032 31.466c17.38 17.38 45.556 17.38 62.934 0z" p-id="11023"></path></svg>