<?xml version="1.0" standalone="no"?><!DOCTYPE svg PUBLIC "-//W3C//DTD SVG 1.1//EN" "http://www.w3.org/Graphics/SVG/1.1/DTD/svg11.dtd"><svg t="1532835705095" class="icon" style="" viewBox="0 0 1025 1024" version="1.1" xmlns="http://www.w3.org/2000/svg" p-id="5376" xmlns:xlink="http://www.w3.org/1999/xlink" width="200.1953125" height="200"><defs><style type="text/css"></style></defs><path d="M820.7961544036864 165.5481848335266c20.382421731948853 0 36.91537828445435 16.532957324981687 36.91537905693054 36.91537905693054v618.184534635544a36.91537828445435 36.91537828445435 0 0 1-36.91537905693054 36.91537828445435h-617.8884213352203a36.91537828445435 36.91537828445435 0 0 1-36.91537905693054-36.91537828445435v-618.184534635544c0-20.382421731948853 16.532957324981687-36.91537828445435 36.91537905693054-36.91537905693054h617.8884213352203m0-49.352109861373904h-617.937774066925a86.3661928367615 86.3661928367615 0 0 0-86.26748891830444 86.26748891830444v618.184534635544a86.3661928367615 86.3661928367615 0 0 0 86.26748891830444 86.26748891830444h617.8884221076966a86.3661928367615 86.3661928367615 0 0 0 86.26748891830444-86.26748891830444v-618.184534635544a86.26748891830444 86.26748891830444 0 0 0-86.21813695907592-86.26748891830444z" fill="" p-id="5377"></path><path d="M511.30907025337217 684.4362739181519m-74.8671515750885 0a74.8671515750885 74.8671515750885 0 1 0 149.734303150177 0 74.8671515750885 74.8671515750885 0 1 0-149.734303150177 0Z" fill="" p-id="5378"></path><path d="M290.70513735771175 684.4362739181519m-74.8671515750885 0a74.8671515750885 74.8671515750885 0 1 0 149.73430237770083 0 74.8671515750885 74.8671515750885 0 1 0-149.73430237770083 0Z" fill="" p-id="5379"></path><path d="M733.6896798610687 684.4362739181519m-74.8671515750885 0a74.8671515750885 74.8671515750885 0 1 0 149.734303150177 0 74.8671515750885 74.8671515750885 0 1 0-149.734303150177 0Z" fill="" p-id="5380"></path></svg>