<?xml version="1.0" standalone="no"?><!DOCTYPE svg PUBLIC "-//W3C//DTD SVG 1.1//EN" "http://www.w3.org/Graphics/SVG/1.1/DTD/svg11.dtd"><svg t="1542192397223" class="icon" style="" viewBox="0 0 1024 1024" version="1.1" xmlns="http://www.w3.org/2000/svg" p-id="3111" xmlns:xlink="http://www.w3.org/1999/xlink" width="200" height="200"><defs><style type="text/css"></style></defs><path d="M434.63111111 136.30577778c14.10844445 0 27.07911111 7.85066667 33.45066667 20.48l46.53511111 90.33955555c9.67111111 18.88711111 29.12711111 30.72 50.40355556 30.72h343.83644444c31.17511111 0 56.66133333 25.37244445 56.66133333 56.66133334v481.39377778c0 31.17511111-25.37244445 56.66133333-56.66133333 56.66133333H115.93955555c-31.17511111 0-56.66133333-25.37244445-56.66133333-56.66133333V192.96711111c0-31.17511111 25.37244445-56.66133333 56.66133333-56.66133333H434.63111111zM115.93955555 79.64444445c-62.57777778 0-113.32266667 50.74488889-113.32266666 113.32266666v623.04711111c0 62.57777778 50.74488889 113.32266667 113.32266666 113.32266667h792.91733334c62.57777778 0 113.32266667-50.74488889 113.32266666-113.32266667V334.50666667c0-62.57777778-50.74488889-113.32266667-113.32266666-113.32266667H580.26666667c-9.44355555 0-17.97688889-5.23377778-22.30044445-13.65333333L502.67022222 100.12444445c-6.48533333-12.51555555-19.34222222-20.48-33.45066667-20.48H115.93955555z" p-id="3112"></path></svg>