<?xml version="1.0" standalone="no"?><!DOCTYPE svg PUBLIC "-//W3C//DTD SVG 1.1//EN" "http://www.w3.org/Graphics/SVG/1.1/DTD/svg11.dtd"><svg t="1534041189719" class="icon" style="" viewBox="0 0 1024 1024" version="1.1" xmlns="http://www.w3.org/2000/svg" p-id="2202" xmlns:xlink="http://www.w3.org/1999/xlink" width="200" height="200"><defs><style type="text/css"></style></defs><path d="M621.68832 717.733888l0 137.13408q0 9.142272-6.856704 15.998976t-15.998976 6.856704l-137.13408 0q-9.142272 0-15.998976-6.856704t-6.856704-15.998976l0-137.13408q0-9.142272 6.856704-15.998976t15.998976-6.856704l137.13408 0q9.142272 0 15.998976 6.856704t6.856704 15.998976zm180.559872-342.8352q0 30.855168-8.856576 57.710592t-19.99872 43.711488-31.42656 33.997824-32.85504 24.855552-34.854912 20.284416q-23.427072 13.142016-39.140352 37.14048t-15.71328 38.283264q0 9.713664-6.856704 18.57024t-15.998976 8.856576l-137.13408 0q-8.57088 0-14.570496-10.570752t-5.999616-21.4272l0-25.71264q0-47.425536 37.14048-89.422848t81.709056-61.996032q33.712128-15.427584 47.996928-31.997952t14.2848-43.425792q0-23.998464-26.569728-42.283008t-61.42464-18.284544q-37.14048 0-61.710336 16.570368-19.99872 14.2848-61.138944 65.71008-7.428096 9.142272-17.713152 9.142272-6.856704 0-14.2848-4.571136l-93.708288-71.424q-7.428096-5.71392-8.856576-14.2848t3.142656-15.998976q91.42272-151.990272 265.125888-151.990272 45.71136 0 91.994112 17.713152t83.423232 47.425536 60.567552 72.85248 23.427072 90.565632z" p-id="2203"></path></svg>