<?xml version="1.0" standalone="no"?><!DOCTYPE svg PUBLIC "-//W3C//DTD SVG 1.1//EN" "http://www.w3.org/Graphics/SVG/1.1/DTD/svg11.dtd"><svg t="1542627799840" class="icon" style="" viewBox="0 0 1024 1024" version="1.1" xmlns="http://www.w3.org/2000/svg" p-id="5517" xmlns:xlink="http://www.w3.org/1999/xlink" width="200" height="200"><defs><style type="text/css"></style></defs><path d="M512.635 62C264.835 62 64 262.915 64 510.637c0 247.716 200.835 448.629 448.635 448.629 247.791 0 448.629-200.986 448.629-448.629C961.262 262.915 760.427 62 512.635 62z m70.36 613.657c-33.874 50.846-68.269 89.952-126.294 89.952-39.554-6.433-55.777-34.771-47.178-63.636l74.548-246.822c1.792-6.054-1.198-12.485-6.73-14.431-5.459-1.942-16.3 5.236-25.648 15.401l-45.011 54.213c-1.198-9.05-0.076-24.153-0.076-30.211 33.801-50.845 89.429-90.922 127.187-90.922 35.819 3.662 52.716 32.375 46.513 63.856L505.227 701.08c-0.969 5.678 1.948 11.208 7.109 13.154 5.453 1.871 17.121-5.234 26.464-15.478l45.089-54.207c1.125 9.046-0.894 24.975-0.894 31.108z m-10.023-322.42c-28.562 0-51.593-20.712-51.593-51.368 0-30.656 23.104-51.367 51.593-51.367 28.413 0 51.667 20.711 51.667 51.367 0 30.655-23.18 51.368-51.667 51.368z" p-id="5518"></path></svg>