<?xml version="1.0" standalone="no"?><!DOCTYPE svg PUBLIC "-//W3C//DTD SVG 1.1//EN" "http://www.w3.org/Graphics/SVG/1.1/DTD/svg11.dtd"><svg t="1534042963308" class="icon" style="" viewBox="0 0 1024 1024" version="1.1" xmlns="http://www.w3.org/2000/svg" p-id="3354" xmlns:xlink="http://www.w3.org/1999/xlink" width="200" height="200"><defs><style type="text/css"></style></defs><path d="M932.422656 240.505856l-182.41536 0 0 183.130112 182.41536 0L932.422656 240.505856zM896.571392 387.731456 786.4832 387.731456 786.4832 277.554176l110.088192 0L896.571392 387.731456zM712.905728 240.505856 530.509824 240.505856l0 183.130112 182.395904 0L712.905728 240.505856zM677.07392 387.731456 566.984704 387.731456 566.984704 277.554176l110.089216 0L677.07392 387.731456zM932.422656 460.005376 530.509824 460.005376l0 183.130112 401.912832 0L932.422656 460.005376zM896.571392 607.232 566.984704 607.232 566.984704 497.052672l329.586688 0L896.571392 607.232zM493.407232 240.505856 311.00928 240.505856l0 183.130112L493.407232 423.635968 493.407232 240.505856zM457.575424 387.731456l-110.09024 0L347.485184 277.554176l110.09024 0L457.575424 387.731456zM91.225088 753.206272l841.643008 0 0-36.583424L91.225088 716.622848 91.225088 753.206272zM987.744256 149.013504 36.5824 149.013504c-20.202496 0-36.5824 16.379904-36.5824 36.5824l0 640.205824c0 20.202496 16.379904 36.583424 36.5824 36.583424l951.16288 0c20.202496 0 36.583424-16.379904 36.583424-36.583424L1024.328704 185.59488C1024.32768 165.392384 1007.946752 149.013504 987.744256 149.013504zM987.744256 807.508992c0 10.109952-8.200192 18.291712-18.291712 18.291712L54.874112 825.800704c-10.110976 0-18.292736-8.18176-18.292736-18.291712L36.581376 203.887616c0-10.109952 8.18176-18.291712 18.292736-18.291712l914.578432 0c10.09152 0 18.291712 8.18176 18.291712 18.291712L987.744256 807.508992zM273.908736 460.005376 91.510784 460.005376l0 183.130112 182.397952 0L273.908736 460.005376zM238.075904 607.232 127.986688 607.232 127.986688 497.052672l110.088192 0L238.07488 607.232zM493.407232 460.005376 311.00928 460.005376l0 183.130112L493.407232 643.135488 493.407232 460.005376zM457.575424 607.232l-110.09024 0L347.485184 497.052672l110.09024 0L457.575424 607.232zM273.908736 240.505856 91.510784 240.505856l0 183.130112 182.397952 0L273.908736 240.505856zM238.075904 387.731456 127.986688 387.731456 127.986688 277.554176l110.088192 0L238.07488 387.731456z" p-id="3355"></path></svg>