<?xml version="1.0" standalone="no"?><!DOCTYPE svg PUBLIC "-//W3C//DTD SVG 1.1//EN" "http://www.w3.org/Graphics/SVG/1.1/DTD/svg11.dtd"><svg t="1532835938340" class="icon" style="" viewBox="0 0 1024 1024" version="1.1" xmlns="http://www.w3.org/2000/svg" p-id="7090" xmlns:xlink="http://www.w3.org/1999/xlink" width="200" height="200"><defs><style type="text/css"></style></defs><path d="M512 224m-96 0a1.5 1.5 0 1 0 192 0 1.5 1.5 0 1 0-192 0Z" p-id="7091"></path><path d="M512 512m-96 0a1.5 1.5 0 1 0 192 0 1.5 1.5 0 1 0-192 0Z" p-id="7092"></path><path d="M512 800m-96 0a1.5 1.5 0 1 0 192 0 1.5 1.5 0 1 0-192 0Z" p-id="7093"></path><path d="M800 224m-96 0a1.5 1.5 0 1 0 192 0 1.5 1.5 0 1 0-192 0Z" p-id="7094"></path><path d="M800 512m-96 0a1.5 1.5 0 1 0 192 0 1.5 1.5 0 1 0-192 0Z" p-id="7095"></path><path d="M800 800m-96 0a1.5 1.5 0 1 0 192 0 1.5 1.5 0 1 0-192 0Z" p-id="7096"></path><path d="M224 224m-96 0a1.5 1.5 0 1 0 192 0 1.5 1.5 0 1 0-192 0Z" p-id="7097"></path><path d="M224 512m-96 0a1.5 1.5 0 1 0 192 0 1.5 1.5 0 1 0-192 0Z" p-id="7098"></path><path d="M224 800m-96 0a1.5 1.5 0 1 0 192 0 1.5 1.5 0 1 0-192 0Z" p-id="7099"></path></svg>