<?xml version="1.0" standalone="no"?><!DOCTYPE svg PUBLIC "-//W3C//DTD SVG 1.1//EN" "http://www.w3.org/Graphics/SVG/1.1/DTD/svg11.dtd"><svg t="1529484936622" class="icon" style="" viewBox="0 0 1259 1024" version="1.1" xmlns="http://www.w3.org/2000/svg" p-id="3466" xmlns:xlink="http://www.w3.org/1999/xlink" width="24.58984375" height="20"><defs><style type="text/css"></style></defs><path d="M234.057143 263.314286l819.2 0c24.239543 0 43.885714-19.646171 43.885714-43.885714 0-24.239543-19.646171-43.885714-43.885714-43.885714L234.057143 175.542857c-24.239543 0-43.885714 19.6608-43.885714 43.885714C190.171429 243.668114 209.8176 263.314286 234.057143 263.314286zM1053.257143 468.114286 234.057143 468.114286c-24.239543 0-43.885714 19.646171-43.885714 43.885714 0 24.239543 19.646171 43.885714 43.885714 43.885714l819.2 0c24.239543 0 43.885714-19.646171 43.885714-43.885714C1097.142857 487.760457 1077.496686 468.114286 1053.257143 468.114286zM1053.257143 760.685714 234.057143 760.685714c-24.239543 0-43.885714 19.646171-43.885714 43.885714 0 24.239543 19.646171 43.885714 43.885714 43.885714l819.2 0c24.239543 0 43.885714-19.646171 43.885714-43.885714C1097.142857 780.331886 1077.496686 760.685714 1053.257143 760.685714z" p-id="3467"></path></svg>