<?xml version="1.0" standalone="no"?><!DOCTYPE svg PUBLIC "-//W3C//DTD SVG 1.1//EN" "http://www.w3.org/Graphics/SVG/1.1/DTD/svg11.dtd"><svg t="1530068288940" class="icon" style="" viewBox="0 0 1102 1024" version="1.1" xmlns="http://www.w3.org/2000/svg" p-id="1950" xmlns:xlink="http://www.w3.org/1999/xlink" width="21.5234375" height="20"><defs><style type="text/css"></style></defs><path d="M623.24841 773.041231l203.48718 202.436923a112.771282 112.771282 0 0 0 158.956307 0 111.405949 111.405949 0 0 0 0-158.168616l-203.487179-202.436923-158.956308 158.168616zM928.978051 336.213333l-135.168-33.608205-33.792-134.485333 156.488205-155.700513C826.656821-16.01641 724.361846 5.067487 653.049436 75.986051c-101.796103 101.244718-69.238154 233.025641 32.584205 334.270359 101.769846 101.244718 234.259692 133.671385 336.029538 32.400411a258.021744 258.021744 0 0 0 63.85559-262.117744l-156.488205 155.700513zM443.418256 357.087179L295.594667 210.051282 253.374359 84.020513 84.466872 0 0 84.020513l84.466872 168.041025 126.687179 42.010257 147.82359 147.035897z" p-id="1951"></path><path d="M670.588718 246.967795l-549.021539 546.133333a125.558154 125.558154 0 0 0 0 178.281026 127.159795 127.159795 0 0 0 179.2 0c15.36-15.307487 406.921846-404.821333 549.021539-546.133333l-179.2-178.281026zM211.154051 924.225641a42.141538 42.141538 0 0 1-42.220307-42.010256c0-23.18441 18.904615-42.010256 42.220307-42.010257 23.315692 0 42.220308 18.825846 42.220308 42.010257 0 23.18441-18.904615 42.010256-42.220308 42.010256z" p-id="1952"></path></svg>