<?xml version="1.0" standalone="no"?><!DOCTYPE svg PUBLIC "-//W3C//DTD SVG 1.1//EN" "http://www.w3.org/Graphics/SVG/1.1/DTD/svg11.dtd"><svg t="1533028709558" class="icon" style="" viewBox="0 0 1024 1024" version="1.1" xmlns="http://www.w3.org/2000/svg" p-id="2194" xmlns:xlink="http://www.w3.org/1999/xlink" width="200" height="200"><defs><style type="text/css"></style></defs><path d="M762.38 799.59c10.84 10.84 26.012 10.84 36.85 0 10.84-10.84 10.84-26.014 0-36.852-10.84-10.84-26.012-10.84-36.85 0-8.672 10.84-8.672 28.18 0 36.852z m73.702-73.704c30.348 30.35 30.348 80.206 0 110.556-30.348 30.348-80.206 30.348-110.554 0l-268.8-268.8c-75.87 32.516-166.916 17.34-229.78-45.522-54.194-54.194-73.704-132.232-54.194-201.6 8.67-34.684 147.406 184.26 238.452 91.046 93.212-93.212-125.728-229.78-91.046-238.452 69.368-19.508 147.406 0 201.6 54.194 62.864 62.864 75.87 153.91 45.52 229.78l268.8 268.8h0.002z" p-id="2195"></path></svg>