<?xml version="1.0" standalone="no"?><!DOCTYPE svg PUBLIC "-//W3C//DTD SVG 1.1//EN" "http://www.w3.org/Graphics/SVG/1.1/DTD/svg11.dtd"><svg t="1532938434733" class="icon" style="" viewBox="0 0 1024 1024" version="1.1" xmlns="http://www.w3.org/2000/svg" p-id="3356" xmlns:xlink="http://www.w3.org/1999/xlink" width="200" height="200"><defs><style type="text/css"></style></defs><path d="M457.4 956.5c-30.6-27.6-63-56.4-97.2-86.4-34.2-30-66-57.6-95.4-82.8-34.2-28.8-68.4-57.3-102.6-85.5-6.6 0.6-13.2 0.9-19.8 0.9-5.4 0.6-11.1 0.9-17.1 0.9H110c-16.2 0-29.4-5-39.6-14.8-10.2-9.9-15.3-21.7-15.3-35.5V426.5h0.9l-0.9-0.9c0-16.8 5.2-30.6 15.7-41.4C81.4 373.4 94.4 368 110 368h51.3c55.2-46.8 105.3-88.8 150.3-126 19.2-16.2 38.1-31.9 56.7-47.2 18.6-15.3 35.4-29.2 50.4-41.8 15-12.6 27.6-23.1 37.8-31.5 10.2-8.4 16.5-13.5 18.9-15.3 18-13.2 32.5-19.2 43.6-18 11.1 1.2 19.8 6.6 26.1 16.2 6.3 9.6 10.7 21.3 13 35.1 2.4 13.8 3.6 26.4 3.6 37.8v728.9c0 11.4-2.1 23.5-6.3 36.4-4.2 12.9-10.7 23.1-19.3 30.6-8.7 7.5-19.6 10.6-32.8 9.4-13.2-1.2-28.5-9.9-45.9-26.1z m0 0" p-id="3357"></path><path d="M763.3 835.2c-7.5 0-14.9-3.2-20.1-9.5-9.1-11.1-7.6-27.5 3.5-36.6 107.5-88.6 157.8-181.2 149.7-275.4-5.8-67.3-41-123.6-69.4-159.1-31.6-39.3-62.1-62.8-70.3-68.2-9.9-3.7-16.9-13.3-16.8-24.5 0.1-12.2 8.4-22.6 20.3-25.3 13-3 22.4 3.7 36.6 14.7 7.8 6.1 20.3 16.5 35.3 31.4 24.5 24.3 59 64 84.1 115.1 32.1 65.2 40.9 131.6 26.2 197.4-18.3 81.5-73 160.2-162.6 234.1-4.9 3.9-10.7 5.9-16.5 5.9z m28.6-572.9z" p-id="3358"></path><path d="M634.1 718.6c-7.8 0-15.5-3.5-20.6-10.1-8.8-11.4-6.7-27.7 4.7-36.5 62.7-48.3 93.2-96.8 90.6-144.1-2-38.1-25.6-70.5-45-90.9-21.6-22.7-43.1-36.1-43.3-36.3-12.2-7.5-16.1-23.5-8.6-35.8 7.5-12.2 23.5-16.1 35.8-8.6 4.4 2.7 107.6 67 113.1 168.7 3.5 65.4-33.8 128.7-110.8 188.1-4.7 3.7-10.3 5.5-15.9 5.5z" p-id="3359"></path></svg>